<?xml version="1.0" encoding="UTF-8"?>
<svg version="1.1" xmlns="http://www.w3.org/2000/svg" width="500" height="500">
<path d="M0 0 C1.175625 0.9590625 1.175625 0.9590625 2.375 1.9375 C2.375 2.5975 2.375 3.2575 2.375 3.9375 C2.97828125 4.16566406 3.5815625 4.39382812 4.203125 4.62890625 C6.99669086 6.31207993 7.73374953 7.95079762 9.125 10.875 C9.76695312 12.18791016 9.76695312 12.18791016 10.421875 13.52734375 C11.375 15.9375 11.375 15.9375 11.375 18.9375 C12.921875 18.875625 12.921875 18.875625 14.5 18.8125 C21.40971898 19.03539416 27.00276354 21.67942346 32.375 25.9375 C34.3063816 28.18069502 35.79435949 30.41835419 37.375 32.9375 C37.96925781 32.66035156 38.56351562 32.38320312 39.17578125 32.09765625 C49.63269965 27.52783654 58.63417245 26.76868565 69.375 30.9375 C77.6055454 34.51033781 82.40693635 41.23126084 85.8125 49.375 C86.58197826 54.24836229 86.53520762 59.01556584 86.375 63.9375 C86.91769531 64.17984375 87.46039063 64.4221875 88.01953125 64.671875 C95.49264706 68.17279412 95.49264706 68.17279412 97.375 71.9375 C98.0625 75.1875 98.0625 75.1875 98.375 77.9375 C99.53 78.040625 100.685 78.14375 101.875 78.25 C106.38671519 78.79785113 110.18105749 80.2149879 114.375 81.9375 C114.375 82.5975 114.375 83.2575 114.375 83.9375 C115.2103125 84.2159375 115.2103125 84.2159375 116.0625 84.5 C121.30054142 87.7560798 123.77775024 93.14480753 125.375 98.9375 C126.39836336 108.02927552 125.62333791 115.32517986 120.375 122.9375 C118.0625 125.5625 118.0625 125.5625 116.375 126.9375 C117.035 127.80375 117.695 128.67 118.375 129.5625 C121.59290679 135.10825426 121.0444006 141.74165255 120.375 147.9375 C119.715 148.9275 119.055 149.9175 118.375 150.9375 C119.014375 151.040625 119.65375 151.14375 120.3125 151.25 C121.3334375 151.5903125 121.3334375 151.5903125 122.375 151.9375 C122.705 152.9275 123.035 153.9175 123.375 154.9375 C124.035 154.9375 124.695 154.9375 125.375 154.9375 C129.01710587 161.90500688 131.01167727 168.52934901 128.65625 176.3125 C125.32767701 184.25812584 121.06431243 189.01745837 113.375 192.9375 C113.436875 194.7009375 113.436875 194.7009375 113.5 196.5 C113.47104702 201.96246279 112.65170763 206.23522315 109.3125 210.6875 C106.52852918 212.81990318 105.07967749 213.42047457 101.8125 214.3125 C98.49749913 215.23314015 98.49749913 215.23314015 96.1171875 217.5703125 C95.81039063 218.18648437 95.50359375 218.80265625 95.1875 219.4375 C93.08748101 223.49270908 91.5822747 224.38263761 87.375 225.9375 C86.715 225.9375 86.055 225.9375 85.375 225.9375 C85.045 227.9175 84.715 229.8975 84.375 231.9375 C83.715 231.9375 83.055 231.9375 82.375 231.9375 C82.2925 232.515 82.21 233.0925 82.125 233.6875 C81.15702213 236.5914336 79.68805716 237.97490604 77.375 239.9375 C76.715 239.9375 76.055 239.9375 75.375 239.9375 C75.2925 240.96875 75.21 242 75.125 243.0625 C74.47688355 248.39992957 72.86716355 253.43763651 71.3125 258.5703125 C69.85228144 263.81493083 69.25652202 268.76200392 69.19921875 274.19921875 C68.64880447 305.64721281 62.5301308 331.78728796 41.375 355.9375 C40.69695312 356.74832031 40.01890625 357.55914062 39.3203125 358.39453125 C35.8229087 362.53772123 35.8229087 362.53772123 34.375 363.9375 C33.715 363.9375 33.055 363.9375 32.375 363.9375 C32.375 364.5975 32.375 365.2575 32.375 365.9375 C31.715 365.9375 31.055 365.9375 30.375 365.9375 C30.375 366.5975 30.375 367.2575 30.375 367.9375 C28.80559199 369.37562673 27.16625965 370.7378005 25.5 372.0625 C24.48292969 372.87332031 23.46585937 373.68414062 22.41796875 374.51953125 C20.91169922 375.71642578 20.91169922 375.71642578 19.375 376.9375 C18.60800781 377.58074219 17.84101563 378.22398437 17.05078125 378.88671875 C3.08826692 390.50996366 -12.74945394 402.43606234 -31.625 402.9375 C-32.31464844 402.97617187 -33.00429688 403.01484375 -33.71484375 403.0546875 C-54.53633499 403.73242139 -75.90447811 395.28220257 -93.625 384.9375 C-94.91107676 384.2102623 -96.19756561 383.48375307 -97.484375 382.7578125 C-125.09925733 367.02651526 -146.6187097 349.07058382 -160.625 319.9375 C-161.800625 320.4325 -162.97625 320.9275 -164.1875 321.4375 C-175.94895609 325.2719559 -187.71031447 323.28452787 -198.625 317.9375 C-206.13023618 313.44802192 -212.99062954 307.64309644 -218.625 300.9375 C-218.625 300.2775 -218.625 299.6175 -218.625 298.9375 C-219.285 298.9375 -219.945 298.9375 -220.625 298.9375 C-226.36400096 291.04456669 -229.76226552 282.19665683 -232.625 272.9375 C-232.8725 272.15890625 -233.12 271.3803125 -233.375 270.578125 C-235.61838415 262.29006691 -235.4128884 252.84721385 -233.9375 244.4375 C-233.55121404 240.1110973 -234.89741652 237.87639034 -236.625 233.9375 C-236.87664343 230.91777886 -236.81003484 227.95973565 -236.625 224.9375 C-237.635625 224.7725 -238.64625 224.6075 -239.6875 224.4375 C-244.86099525 222.92330627 -247.82956556 219.40869218 -250.625 214.9375 C-253.708638 207.51907578 -252.66569827 199.53287941 -250.625 191.9375 C-249.04296875 189.05078125 -249.04296875 189.05078125 -247.625 186.9375 C-248.49125 186.56625 -248.49125 186.56625 -249.375 186.1875 C-253.86609079 183.69244956 -256.064245 180.77516484 -257.625 175.9375 C-257.92578125 172.59765625 -257.92578125 172.59765625 -257.9375 169 C-257.95425781 167.81535156 -257.97101563 166.63070312 -257.98828125 165.41015625 C-257.42276963 160.00435166 -254.99143687 156.10546946 -251.625 151.9375 C-252.285 151.9375 -252.945 151.9375 -253.625 151.9375 C-253.625 151.2775 -253.625 150.6175 -253.625 149.9375 C-254.285 149.9375 -254.945 149.9375 -255.625 149.9375 C-260.05810493 142.3583206 -261.58527876 135.04677626 -260 126.3125 C-257.62890888 117.57690113 -253.03187092 111.12371512 -245.625 105.9375 C-242.30528391 104.08294687 -239.49174859 102.9375 -235.625 102.9375 C-235.67140625 102.27105469 -235.7178125 101.60460937 -235.765625 100.91796875 C-236.15846107 90.88661904 -233.99795722 83.32554624 -227.5 75.5625 C-222.44638049 70.2997075 -215.15525857 65.2018527 -207.58203125 64.83984375 C-206.87433594 64.85144531 -206.16664063 64.86304687 -205.4375 64.875 C-204.179375 64.895625 -202.92125 64.91625 -201.625 64.9375 C-201.67140625 64.04289062 -201.7178125 63.14828125 -201.765625 62.2265625 C-202.06722135 52.12308473 -200.93607822 44.76293607 -194.5625 36.75 C-187.62389658 29.3935882 -178.78463177 24.18909041 -168.57421875 23.6015625 C-167.15388253 23.57254576 -165.73313026 23.55992901 -164.3125 23.5625 C-163.19862915 23.56056641 -163.19862915 23.56056641 -162.06225586 23.55859375 C-156.65123356 23.66230059 -152.30566498 24.64413548 -147.41015625 27.0625 C-145.65703241 28.08420872 -145.65703241 28.08420872 -143.625 27.9375 C-142.31792339 26.11147457 -142.31792339 26.11147457 -141 23.8125 C-135.31101551 15.1012425 -127.72519598 11.10708093 -117.625 8.9375 C-105.18582129 7.64417418 -96.41552677 11.23811947 -85.625 16.9375 C-84.6659375 16.0403125 -84.6659375 16.0403125 -83.6875 15.125 C-77.09623573 10.41695409 -68.23684527 8.12690013 -60.1640625 9.29296875 C-56.90310655 9.99476024 -53.78980068 10.88256644 -50.625 11.9375 C-50.13 10.7825 -49.635 9.6275 -49.125 8.4375 C-44.77299223 1.34018499 -34.78500641 -2.69905305 -26.94921875 -4.76953125 C-17.45107335 -5.96677647 -8.26391814 -5.16736802 0 0 Z " fill="#050505" transform="translate(320.625,52.0625)"/>
<path d="M0 0 C0.34611328 0.99580078 0.34611328 0.99580078 0.69921875 2.01171875 C3.68959767 10.10819923 7.43906105 14.61465541 15 19 C23.56885107 22.17364855 30.78038091 21.59418768 39 18 C43.19012879 15.72899273 43.19012879 15.72899273 46 12 C49.3812033 13.48772945 52.12534519 15.52870432 55.0234375 17.78125 C59.65519189 20.63719342 64.07471757 21.25831705 69.4375 21.1875 C70.50871094 21.18105469 71.57992188 21.17460937 72.68359375 21.16796875 C76.17106706 20.99133583 79.55240729 20.54481554 83 20 C83.49628906 20.80824219 83.99257813 21.61648437 84.50390625 22.44921875 C89.05178419 29.60328101 92.68321587 35.22773862 101 38 C102.3726682 39.97321053 103.70427617 41.97543152 105 44 C105.804375 44.680625 105.804375 44.680625 106.625 45.375 C114.87159215 55.12097254 111.73787763 79.47869905 111 91 C109.49525855 103.45762136 106.57841085 115.69696384 102.9765625 127.703125 C99.55910741 139.24045339 97.74236154 150.06045109 97.4375 162.125 C96.78877573 187.76803817 89.80692645 210.12679452 72.8828125 229.79296875 C70.87819053 232.0548687 70.87819053 232.0548687 69 235 C68.34 235 67.68 235 67 235 C66.64808594 235.85078125 66.64808594 235.85078125 66.2890625 236.71875 C60.60259256 246.78207862 47.21449443 254.30591914 38 261 C36.53240234 262.07701172 36.53240234 262.07701172 35.03515625 263.17578125 C30.22877525 266.63430194 25.47143696 269.70963104 20 272 C19.00226563 272.44859375 19.00226563 272.44859375 17.984375 272.90625 C-0.38852068 279.84426655 -21.31830383 273.5015875 -38.36694336 265.86645508 C-47.62071675 261.53108926 -56.46563213 256.47874732 -65.16503906 251.12841797 C-66.80897514 250.11747165 -68.4624895 249.12213976 -70.1171875 248.12890625 C-76.89915248 243.96942915 -82.93874125 239.13971941 -89 234 C-89.63679688 233.49855469 -90.27359375 232.99710938 -90.9296875 232.48046875 C-104.9723461 221.25281314 -112.67424284 205.32116794 -119.1496582 189.02368164 C-120.01443896 186.96563751 -120.98024313 184.98519726 -122 183 C-122.226875 184.0725 -122.45375 185.145 -122.6875 186.25 C-124.16333153 190.46666152 -125.27650626 191.6619923 -129 194 C-135.55734807 197.0468486 -142.34304569 197.10723225 -149.23828125 195.01953125 C-166.72267575 187.94303285 -178.67253183 175.16603498 -186 158 C-190.51673202 146.15054873 -192.51197968 132.48418659 -188.1015625 120.2421875 C-184.47767273 112.86590124 -179.38451925 107.59593981 -172 104 C-164.80812244 101.60270748 -157.84072066 103.18388485 -151 106 C-148.36783904 107.49202707 -146.32755873 109.02663499 -144 111 C-144 111.66 -144 112.32 -144 113 C-143.01 113.33 -142.02 113.66 -141 114 C-139.91259766 115.6105957 -139.91259766 115.6105957 -138.9140625 117.67578125 C-138.54023438 118.42150391 -138.16640625 119.16722656 -137.78125 119.93554688 C-137.01652084 121.50763369 -136.25347159 123.0805389 -135.4921875 124.65429688 C-133.20753976 129.20403202 -131.2470362 131.99993471 -127 135 C-126.1875 137.25 -126.1875 137.25 -126 139 C-124.68 139 -123.36 139 -122 139 C-122.06783691 138.45939941 -122.13567383 137.91879883 -122.20556641 137.36181641 C-123.11238912 129.38014259 -123.32406057 121.40051905 -123.375 113.375 C-123.38234161 112.31117599 -123.38234161 112.31117599 -123.38983154 111.2258606 C-123.42106487 100.28600122 -122.2788984 91.15265892 -118 81 C-117.69578125 79.78570312 -117.3915625 78.57140625 -117.078125 77.3203125 C-115.9208969 73.75638537 -115.05760298 72.64525205 -112.125 70.4375 C-103.73391211 63.56653672 -102.51987469 56.25705545 -101.375 45.9375 C-100.74850772 38.30968166 -100.91932052 30.64662154 -101 23 C-99.89205078 23.23589844 -99.89205078 23.23589844 -98.76171875 23.4765625 C-90.33413363 25.07387001 -84.24971504 23.74683723 -77 19 C-76.67 18.34 -76.34 17.68 -76 17 C-75.01 17 -74.02 17 -73 17 C-71.8553125 18.175625 -71.8553125 18.175625 -70.6875 19.375 C-65.46719031 24.47390714 -59.31209612 24.47825625 -52.3359375 24.3984375 C-47.19032791 23.7838565 -43.39745541 21.58923533 -39 19 C-38.01 18.67 -37.02 18.34 -36 18 C-36 17.34 -36 16.68 -36 16 C-35.34 16 -34.68 16 -34 16 C-33.71125 15.236875 -33.4225 14.47375 -33.125 13.6875 C-32 11 -32 11 -30 8 C-29.61500109 6.34450469 -29.27206865 4.6777567 -29 3 C-28.05125 3.165 -27.1025 3.33 -26.125 3.5 C-17.91223352 4.60715363 -11.66708959 4.35462311 -4.03125 0.875 C-2 0 -2 0 0 0 Z " fill="#FAFAFA" transform="translate(284,171)"/>
<path d="M0 0 C-1.485 2.475 -1.485 2.475 -3 5 C4.07028615 6.78978518 11.10535757 8.23304742 18.3125 9.3125 C27.19891652 10.65948782 36.03977028 12.22992122 44.875 13.875 C45.56739777 14.00374512 46.25979553 14.13249023 46.97317505 14.26513672 C56.48052766 16.04300542 65.8878049 18.08847404 75.26977539 20.44555664 C81.48312494 21.97294936 87.58831316 22.85397815 94 23 C94.495 25.475 94.495 25.475 95 28 C94.13375 28.12375 93.2675 28.2475 92.375 28.375 C87.24391195 30.84552388 85.66250529 35.1292226 83 40 C76.86620352 50.46353518 69.6674383 57.27231665 58 61 C56.515 61.495 56.515 61.495 55 62 C40.52012491 63.02349059 29.10860395 60.37635475 17 52 C16.39800781 51.58363281 15.79601562 51.16726563 15.17578125 50.73828125 C2.8261724 41.15222123 -5.25045033 25.86663551 -9 11 C-9.99 11.495 -9.99 11.495 -11 12 C-11.33 12.99 -11.66 13.98 -12 15 C-12.66 15 -13.32 15 -14 15 C-14 10.81443559 -13.98548904 8.2318613 -11.328125 4.91015625 C-7.5076458 1.39847518 -5.35750115 -0.44958052 0 0 Z " fill="#070707" transform="translate(238,344)"/>
<path d="M0 0 C1.27746094 -0.01417969 2.55492187 -0.02835938 3.87109375 -0.04296875 C12.3258783 0.48489611 18.35378613 4.67509049 24.5625 10.1875 C26.62354224 12.91912057 27.458661 14.875983 28.5625 18.1875 C28.140625 20.421875 28.140625 20.421875 27.5625 22.1875 C24.5625 18.4375 24.5625 18.4375 24.5625 16.1875 C24.02625 15.94 23.49 15.6925 22.9375 15.4375 C20.5625 14.1875 20.5625 14.1875 17.8125 12.25 C12.84203969 9.09566942 8.48150263 7.1875 2.5625 7.1875 C3.160625 7.703125 3.75875 8.21875 4.375 8.75 C8.99412461 13.89702457 10.1279725 18.92750208 9.921875 25.6875 C9.11001848 31.33519753 6.53335768 35.21664232 2.5625 39.1875 C8.5025 39.1875 14.4425 39.1875 20.5625 39.1875 C11.462367 45.25425534 -0.85277414 45.48874996 -11.4375 44.1875 C-16.32093814 43.1221429 -20.98200278 41.46001018 -25.4375 39.1875 C-25.7675 38.5275 -26.0975 37.8675 -26.4375 37.1875 C-24.7875 37.1875 -23.1375 37.1875 -21.4375 37.1875 C-22.4275 35.888125 -22.4275 35.888125 -23.4375 34.5625 C-26.72419651 28.97280136 -25.74977024 22.44157896 -25.4375 16.1875 C-27.7475 18.8275 -30.0575 21.4675 -32.4375 24.1875 C-33.4375 21.1875 -33.4375 21.1875 -32.43359375 18.8828125 C-27.20063069 10.25301377 -20.14858008 3.28460117 -10.125 0.55859375 C-6.73111025 0.08996072 -3.42604337 0.01725097 0 0 Z " fill="#0A0A0A" transform="translate(243.4375,255.8125)"/>
<path d="M0 0 C3.54502846 2.25129681 6.06090141 4.47808089 8.71875 7.7265625 C8.71875 8.3865625 8.71875 9.0465625 8.71875 9.7265625 C9.70875 9.7265625 10.69875 9.7265625 11.71875 9.7265625 C11.85216797 8.84871094 11.85216797 8.84871094 11.98828125 7.953125 C13.37661955 3.72129169 17.22836165 1.28790109 20.71875 -1.2734375 C25.88794617 -3.750344 31.38536278 -4.34012141 36.8671875 -2.5859375 C41.64249281 -0.45568978 44.39997647 1.89578432 46.71875 6.7265625 C47.22205328 10.24968546 46.93823134 12.19005256 45.59375 15.4765625 C43.24348142 18.2968848 41.23377859 18.86733329 37.71875 19.7265625 C38.04875 19.2109375 38.37875 18.6953125 38.71875 18.1640625 C40.10760542 14.77872741 40.17185904 12.35143485 39.71875 8.7265625 C36.92949787 5.32716147 35.20690967 4.78955084 30.84375 4.2265625 C25.25553492 4.53233276 21.56680712 7.03251014 17.46875 10.7890625 C14.87360622 15.14519671 13.85420851 19.81484425 12.71875 24.7265625 C10.17939947 22.50128954 9.74733284 22.0909937 9.46875 18.5390625 C8.40508286 13.13208789 5.89041282 10.23722241 1.71875 6.7265625 C-4.59843609 2.78783503 -10.82563825 0.46800052 -18.28125 1.7265625 C-23.32183989 3.00266121 -27.66507386 4.90948768 -31.28125 8.7265625 C-32.82466623 11.65146277 -34.10039774 14.63919458 -35.28125 17.7265625 C-33.981875 17.7884375 -33.981875 17.7884375 -32.65625 17.8515625 C-28.24567762 18.99504423 -25.94303023 21.07861451 -23.28125 24.7265625 C-22.40625 27.6015625 -22.40625 27.6015625 -22.28125 29.7265625 C-23.209375 29.0871875 -24.1375 28.4478125 -25.09375 27.7890625 C-30.37004186 24.3749913 -35.13000004 23.92259974 -41.28125 24.7265625 C-46.79365535 26.95232617 -49.31743147 30.86704022 -51.65234375 36.15234375 C-51.85988281 36.67183594 -52.06742188 37.19132812 -52.28125 37.7265625 C-52.61125 37.7265625 -52.94125 37.7265625 -53.28125 37.7265625 C-53.33562607 36.14361468 -53.37421271 34.56011994 -53.40625 32.9765625 C-53.42945313 32.09484375 -53.45265625 31.213125 -53.4765625 30.3046875 C-53.27264502 27.6129767 -52.64676721 26.02751276 -51.28125 23.7265625 C-52.23 23.4171875 -53.17875 23.1078125 -54.15625 22.7890625 C-57.28125 21.7265625 -57.28125 21.7265625 -59.28125 20.7265625 C-61.52780587 20.57679211 -63.77988768 20.50506076 -66.03125 20.4765625 C-67.84882813 20.43789062 -67.84882813 20.43789062 -69.703125 20.3984375 C-76.0903093 20.98416182 -80.21389379 23.88970647 -84.28125 28.7265625 C-87.29144284 34.04456985 -87.86439859 37.94513839 -86.28125 43.7265625 C-85.34182514 45.75572019 -84.35526615 47.76531562 -83.28125 49.7265625 C-83.28125 50.3865625 -83.28125 51.0465625 -83.28125 51.7265625 C-89.07413965 50.27834009 -91.32132169 47.95760374 -94.359375 42.94921875 C-96.36076646 38.12383003 -95.96177739 32.81857888 -95.28125 27.7265625 C-92.23155927 20.52298266 -86.82678641 15.82494119 -80.21875 11.9140625 C-73.14275648 9.19011809 -64.78156402 9.839956 -57.78125 12.4140625 C-53.75066885 14.24554807 -51.10445148 16.33872072 -48.28125 19.7265625 C-44.73606116 18.32896345 -44.73606116 18.32896345 -41.28125 16.7265625 C-40.66624442 15.20507951 -40.11341031 13.65819204 -39.59375 12.1015625 C-37.08504395 5.69245945 -33.90438896 1.59925856 -27.734375 -1.58984375 C-17.30669244 -5.81688456 -9.88012916 -5.37295684 0 0 Z " fill="#F0F0F0" transform="translate(225.28125,73.2734375)"/>
<path d="M0 0 C2.20832525 1.47554012 4.00405441 3.14209994 5.73046875 5.15625 C5.40046875 6.14625 5.07046875 7.13625 4.73046875 8.15625 C3.63734375 7.49625 2.54421875 6.83625 1.41796875 6.15625 C-3.78882435 3.59884986 -8.56915624 3.09552681 -14.26953125 4.15625 C-19.48254019 6.40515477 -24.17375022 9.83477653 -26.6796875 15.04296875 C-28.39243972 21.17938565 -28.27759647 27.7845319 -25.58203125 33.59375 C-23.62981775 36.95939405 -21.0951838 39.48757815 -18.26953125 42.15625 C-18.26953125 42.81625 -18.26953125 43.47625 -18.26953125 44.15625 C-23.01953125 43.28125 -23.01953125 43.28125 -25.26953125 42.15625 C-32.1415567 41.38989981 -36.69366433 42.03010848 -42.26953125 46.15625 C-45.96609697 50.05263009 -47.93405406 53.6401711 -48.64453125 58.96875 C-48.04639496 64.05290843 -45.89644571 68.52933554 -42.26953125 72.15625 C-40.07662043 72.61287153 -37.86367236 72.976662 -35.64453125 73.28125 C-34.45601562 73.44882813 -33.2675 73.61640625 -32.04296875 73.7890625 C-30.67011719 73.97082031 -30.67011719 73.97082031 -29.26953125 74.15625 C-28.60953125 76.13625 -27.94953125 78.11625 -27.26953125 80.15625 C-27.76453125 79.99125 -28.25953125 79.82625 -28.76953125 79.65625 C-34.02619076 78.6049181 -37.78007647 78.38287925 -42.51953125 80.84375 C-47.37104461 84.69670891 -47.37104461 84.69670891 -49.6171875 90.265625 C-49.80936729 95.24558834 -49.14184322 98.95036462 -46.26953125 103.15625 C-43.23866438 105.35101566 -39.92931677 105.65718834 -36.26953125 106.15625 C-35.93953125 104.83625 -35.60953125 103.51625 -35.26953125 102.15625 C-33.96011544 104.58802222 -33.18233708 106.55258715 -32.58203125 109.28125 C-31.49368023 112.55725279 -31.49368023 112.55725279 -27.64453125 113.53125 C-26.53078125 113.7375 -25.41703125 113.94375 -24.26953125 114.15625 C-24.59953125 114.81625 -24.92953125 115.47625 -25.26953125 116.15625 C-29.91566833 116.47303207 -31.65018965 115.93107856 -35.26953125 113.15625 C-37.34406685 113.0071788 -37.34406685 113.0071788 -39.26953125 114.15625 C-42.68082267 117.85993783 -44.17476945 120.45053762 -44.45703125 125.53125 C-44.20339883 130.43481012 -43.55384322 132.94136029 -39.95703125 136.34375 C-37.43421026 138.04518741 -35.13850318 139.17260248 -32.26953125 140.15625 C-32.59953125 140.81625 -32.92953125 141.47625 -33.26953125 142.15625 C-42.25507591 142.6131421 -42.25507591 142.6131421 -46.26953125 139.15625 C-50.48291332 133.57636564 -50.99915607 129.04061319 -50.26953125 122.15625 C-49.22693855 116.55231422 -44.50266658 113.57229176 -40.26953125 110.15625 C-40.86765625 109.86492187 -41.46578125 109.57359375 -42.08203125 109.2734375 C-46.69036709 106.91989455 -50.91818469 104.12821629 -54.26953125 100.15625 C-55.71892582 95.57302932 -56.03801812 90.89525236 -55.26953125 86.15625 C-53.63418445 83.12361321 -51.56140912 80.7102161 -49.26953125 78.15625 C-48.25840905 76.83133126 -47.25526568 75.50016421 -46.26953125 74.15625 C-47.13578125 73.785 -47.13578125 73.785 -48.01953125 73.40625 C-51.99154908 71.19957343 -54.595956 68.36532768 -56.26953125 64.15625 C-57.13351506 56.77146207 -57.39666816 49.8690311 -52.75390625 43.765625 C-47.59628622 38.17367908 -42.17203668 34.34208359 -34.33203125 33.96875 C-33.32140625 34.030625 -32.31078125 34.0925 -31.26953125 34.15625 C-31.59050781 33.30675781 -31.91148438 32.45726562 -32.2421875 31.58203125 C-34.40375083 24.37408052 -34.7181318 15.99539385 -31.26953125 9.15625 C-24.1342335 -1.72913322 -11.66855582 -6.52134856 0 0 Z " fill="#EDEDED" transform="translate(127.26953125,127.84375)"/>
<path d="M0 0 C7.2166022 3.93421217 12.52032046 9.56921141 15.421875 17.3203125 C15.77602036 19.82692578 15.69206257 21.78054932 15.421875 24.3203125 C13.421875 23.3203125 13.421875 23.3203125 11.734375 19.6953125 C7.93614009 11.87459264 2.23669458 7.74786495 -5.578125 4.3203125 C-5.2171875 4.77019531 -4.85625 5.22007812 -4.484375 5.68359375 C-0.33002815 11.44198008 0.53008582 16.31520008 -0.578125 23.3203125 C-1.83552913 27.25847669 -3.0311609 30.44238215 -6.71875 32.53515625 C-7.63914062 32.92380859 -7.63914062 32.92380859 -8.578125 33.3203125 C-8.578125 33.9803125 -8.578125 34.6403125 -8.578125 35.3203125 C-1.648125 35.8153125 -1.648125 35.8153125 5.421875 36.3203125 C4.926875 37.3103125 4.926875 37.3103125 4.421875 38.3203125 C-8.4747439 38.69594218 -18.22234761 38.94700851 -28.94921875 31.015625 C-33.52496549 26.25333702 -33.1250064 19.99773597 -33.0078125 13.7734375 C-32.35852567 8.55553243 -30.60474651 5.64247537 -26.578125 2.3203125 C-17.66107414 -3.82053301 -9.80824105 -4.35583376 0 0 Z " fill="#0C0C0C" transform="translate(355.578125,275.6796875)"/>
<path d="M0 0 C7.46087089 -0.23635283 14.45861157 0.65869705 21.8125 1.875 C22.93076172 2.04902344 24.04902344 2.22304688 25.20117188 2.40234375 C34.89504627 3.97243738 34.89504627 3.97243738 38 6 C38.495 7.485 38.495 7.485 39 9 C39.33 8.34 39.66 7.68 40 7 C47.34918342 6.56769509 53.90215087 8.18225815 61 10 C60.50247891 15.84587284 58.91416125 20.87547493 56 26 C52.84044583 27.57977708 49.46536183 27.18447084 46 27.1875 C45.26265625 27.19974609 44.5253125 27.21199219 43.765625 27.22460938 C41.84229942 27.22987395 39.91945737 27.12203447 38 27 C37.34 26.34 36.68 25.68 36 25 C36.0234375 22.6171875 36.0234375 22.6171875 36.375 19.875 C36.48585938 18.96492188 36.59671875 18.05484375 36.7109375 17.1171875 C36.80632812 16.41851562 36.90171875 15.71984375 37 15 C36.72285156 15.63808594 36.44570313 16.27617187 36.16015625 16.93359375 C35.61681641 18.17302734 35.61681641 18.17302734 35.0625 19.4375 C34.70285156 20.26121094 34.34320313 21.08492188 33.97265625 21.93359375 C33 24 33 24 32 25 C25.41774467 25.49831764 20.43222101 24.14543232 14.3125 21.8125 C13.48427734 21.52052734 12.65605469 21.22855469 11.80273438 20.92773438 C6.89860298 19.10193686 3.15183616 17.37190177 0 13 C-0.48828125 9.66796875 -0.48828125 9.66796875 -0.3125 6.1875 C-0.26738281 5.02605469 -0.22226563 3.86460937 -0.17578125 2.66796875 C-0.11777344 1.78753906 -0.05976563 0.90710938 0 0 Z " fill="#F5F5F5" transform="translate(250,358)"/>
<path d="M0 0 C5.43049744 4.10598587 9.84242844 8.99563901 10.84765625 15.89453125 C11.30269647 22.55678673 8.87023592 27.27890891 5.5625 32.9375 C6.119375 32.92847656 6.67625 32.91945312 7.25 32.91015625 C13.37255515 33.14802579 16.48544937 34.90816598 20.93359375 39.05078125 C24.01136866 42.61568601 24.82303057 45.24794965 24.5625 49.9375 C25.18125 49.7725 25.8 49.6075 26.4375 49.4375 C37.19855611 47.71573102 37.19855611 47.71573102 41.8828125 50.13671875 C46.31647418 53.38425322 49.79377803 56.63133408 51.5625 61.9375 C51.93279904 67.58456035 51.73950432 71.06609338 48.5625 75.9375 C46.64818367 78.06127079 44.65708122 79.98255753 42.5625 81.9375 C41.0775 81.4425 41.0775 81.4425 39.5625 80.9375 C40.036875 80.15375 40.51125 79.37 41 78.5625 C43.92888474 73.64197363 44.25356347 69.63652988 43.5625 63.9375 C41.72593011 60.97018602 41.72593011 60.97018602 39.5625 58.9375 C39.5625 58.2775 39.5625 57.6175 39.5625 56.9375 C29.8616424 55.88785662 29.8616424 55.88785662 20.7890625 58.49609375 C18.68166303 60.37771531 18.68166303 60.37771531 16.9453125 62.40625 C16.48898437 62.9115625 16.03265625 63.416875 15.5625 63.9375 C14.9025 63.9375 14.2425 63.9375 13.5625 63.9375 C13.5625 63.2775 13.5625 62.6175 13.5625 61.9375 C14.2225 61.9375 14.8825 61.9375 15.5625 61.9375 C17.19913806 57.02758581 17.04781826 52.06107423 16.5625 46.9375 C14.53461102 42.9628376 11.94918913 41.11188507 7.77734375 39.49609375 C3.13235623 38.3246066 -1.66793339 38.16462222 -6.4375 37.9375 C-4.60697246 36.09629883 -2.75676394 34.28997058 -0.875 32.5 C3.24412921 28.16963339 3.94317427 24.95984437 3.828125 19.12109375 C3.47037578 16.18018469 2.30058143 14.30129074 0.5625 11.9375 C0.2325 10.9475 -0.0975 9.9575 -0.4375 8.9375 C-2.86133077 7.76796584 -2.86133077 7.76796584 -5.4375 6.9375 C-6.0975 6.6075 -6.7575 6.2775 -7.4375 5.9375 C-13.42515381 5.30336966 -18.10212173 5.96200058 -23.4375 8.9375 C-26.1670585 11.41656969 -26.1670585 11.41656969 -28.4375 13.9375 C-29.4275 14.5975 -30.4175 15.2575 -31.4375 15.9375 C-31.19125155 10.88940671 -29.57957175 8.12561759 -26.21875 4.55078125 C-18.843371 -2.12911245 -9.38623601 -2.90120022 0 0 Z " fill="#ECECEC" transform="translate(386.4375,90.0625)"/>
<path d="M0 0 C4.64612577 4.75898713 7.0255271 9.02790435 7.5625 15.625 C7.64628906 16.62789062 7.73007812 17.63078125 7.81640625 18.6640625 C7.87699219 19.43492188 7.93757813 20.20578125 8 21 C8.56203125 20.84144531 9.1240625 20.68289062 9.703125 20.51953125 C16.30976807 19.02517151 22.41004573 19.37594772 28.3046875 22.8125 C30.95905094 24.67177762 32.46155469 26.11541505 34 29 C34.66477871 33.75572461 34.62311203 37.85871697 32 42 C29.375 43.25 29.375 43.25 27 44 C27.33 43.01 27.66 42.02 28 41 C28.40162728 37.93615762 28.48801241 35.05678104 28 32 C25.47031526 28.71824682 23.92268669 27.30756223 20 26 C14.31104596 25.57895865 9.32590217 25.75751488 4 28 C3.97421875 27.27554688 3.9484375 26.55109375 3.921875 25.8046875 C3.56716785 19.75854287 3.05709301 15.7730506 -1 11 C-1.474375 10.4225 -1.94875 9.845 -2.4375 9.25 C-7.02060299 5.5835176 -12.28476337 5.46048326 -17.91796875 5.55078125 C-23.93828901 6.42826773 -27.98918886 9.80067532 -32 14.1875 C-33.59381598 18.67010743 -33.75993607 23.27322394 -34 28 C-37.46112211 24.68936146 -38.20128241 22.672278 -38.375 17.875 C-38.29812141 11.99378787 -36.94831295 8.34790124 -33 4 C-23.34910421 -4.89784848 -11.50843544 -7.06110785 0 0 Z " fill="#ECECEC" transform="translate(316,59)"/>
<path d="M0 0 C11.61553937 4.99317342 19.1616368 14.59257971 24 26 C25.24732 31.45373434 24.93432945 34.23171465 22 39 C22.07401236 43.14469235 22.40408868 45.27768325 25.0625 48.5 C27 51 27 51 27.5 54.5625 C27 58 27 58 25.625 60.4375 C21.68442549 62.78308007 17.47978844 62.86630055 13 62 C12.34 61.01 11.68 60.02 11 59 C11.63808594 58.93941406 12.27617187 58.87882812 12.93359375 58.81640625 C13.75988281 58.73261719 14.58617187 58.64882813 15.4375 58.5625 C16.26121094 58.48128906 17.08492187 58.40007812 17.93359375 58.31640625 C19.98662025 58.21069185 19.98662025 58.21069185 21 57 C21.41780879 54.62694422 21.41780879 54.62694422 21 52 C19.10413616 49.85410577 19.10413616 49.85410577 17 48 C15.6530183 43.95905491 15.09071365 39.87540309 17 35.9375 C17.33 35.298125 17.66 34.65875 18 34 C18.33083127 30.0300247 18.09972674 27.41205596 16 24 C11.6274154 23.57131524 9.68919119 23.44864705 6.1875 26.25 C2.84120981 30.45676481 1.75892751 33.37501485 1.375 38.75 C1.30023438 39.73484375 1.22546875 40.7196875 1.1484375 41.734375 C1.09945312 42.48203125 1.05046875 43.2296875 1 44 C0.34 43.67 -0.32 43.34 -1 43 C-1.86060973 27.06915773 -1.86060973 27.06915773 1.1875 22.6875 C7.13953488 17 7.13953488 17 11 17 C6.33450125 11.18883144 2.62660821 6.75536461 -5.0625 5.5 C-9.19426505 6.20327916 -10.45842761 7.70282501 -13 11 C-16.25106408 16.96253247 -16.64416952 23.32511109 -17 30 C-20.56934726 24.26913568 -19.83225324 16.11231011 -18.53515625 9.703125 C-15.25290712 0.9245652 -8.67703714 -1.58726289 0 0 Z " fill="#141414" transform="translate(123,289)"/>
<path d="M0 0 C2.37686478 1.88907537 4.06193689 3.6312562 6 6 C6 6.66 6 7.32 6 8 C6.99 8 7.98 8 9 8 C9.13341797 7.12214844 9.13341797 7.12214844 9.26953125 6.2265625 C10.65786955 1.99472919 14.50961165 -0.43866141 18 -3 C23.16919617 -5.4769065 28.66661278 -6.06668391 34.1484375 -4.3125 C38.92374281 -2.18225228 41.68122647 0.16922182 44 5 C44.50330328 8.52312296 44.21948134 10.46349006 42.875 13.75 C40.52473142 16.5703223 38.51502859 17.14077079 35 18 C35.33 17.484375 35.66 16.96875 36 16.4375 C37.38885542 13.05216491 37.45310904 10.62487235 37 7 C34.21074787 3.60059897 32.48815967 3.06298834 28.125 2.5 C22.53678492 2.80577026 18.84805712 5.30594764 14.75 9.0625 C12.15485622 13.41863421 11.13545851 18.08828175 10 23 C7.46064947 20.77472704 7.02858284 20.3644312 6.75 16.8125 C5.68633286 11.40552539 3.17166282 8.51065991 -1 5 C-7.31718609 1.06127253 -13.54438825 -1.25856198 -21 0 C-26.04058989 1.27609871 -30.38382386 3.18292518 -34 7 C-35.54341623 9.92490027 -36.81914774 12.91263208 -38 16 C-38.66 14.68 -39.32 13.36 -40 12 C-40.99 12.33 -41.98 12.66 -43 13 C-41.52418879 6.44083906 -37.51241515 1.28274281 -31.90234375 -2.36328125 C-20.43848419 -8.25591934 -10.81085586 -6.86551478 0 0 Z " fill="#EEEEEE" transform="translate(228,75)"/>
<path d="M0 0 C0.85247314 -0.01015137 1.70494629 -0.02030273 2.58325195 -0.03076172 C8.50461778 0.05216894 12.95539056 1.00419785 17.4375 5.1875 C18.99217077 8.29684153 18.63432303 11.00595523 18.5625 14.4375 C17.560979 14.41131592 16.55945801 14.38513184 15.52758789 14.3581543 C11.72378924 14.26596383 7.92008309 14.20965502 4.11547852 14.1628418 C2.48542552 14.13807381 0.85547881 14.10424869 -0.77416992 14.06030273 C-11.64212931 13.77509849 -20.86906748 14.85633722 -31.19360352 18.35473633 C-34.4375 19.4375 -34.4375 19.4375 -36.4375 19.4375 C-35.5625 14.6875 -35.5625 14.6875 -34.4375 12.4375 C-33.7775 12.4375 -33.1175 12.4375 -32.4375 12.4375 C-32.4375 11.7775 -32.4375 11.1175 -32.4375 10.4375 C-23.30962451 2.18231545 -11.88533942 0.1016673 0 0 Z " fill="#0D0D0D" transform="translate(252.4375,212.5625)"/>
<path d="M0 0 C5.4038489 2.48152578 10.49918722 5.70821893 13.3359375 11.125 C13.0059375 12.115 12.6759375 13.105 12.3359375 14.125 C10.93619792 12.62760417 9.53645833 11.13020833 8.13671875 9.6328125 C3.53464122 5.77944606 -1.32020237 5.75516411 -7.0703125 5.87109375 C-11.37923053 6.29290049 -13.50623487 7.96717237 -16.4765625 10.9375 C-18.67527686 14.98776329 -17.80503962 18.85553721 -16.6640625 23.125 C-15.22995882 23.37454005 -13.79146178 23.59892642 -12.3515625 23.8125 C-11.55105469 23.94011719 -10.75054687 24.06773437 -9.92578125 24.19921875 C-7.60140013 24.33933618 -7.60140013 24.33933618 -5.9140625 22.8125 C-4.31629544 20.65551446 -4.01980208 18.75747289 -3.6640625 16.125 C-3.0040625 16.125 -2.3440625 16.125 -1.6640625 16.125 C-0.32663081 22.32581967 -0.32663081 22.32581967 -1.8515625 25.9375 C-4.25682087 28.84039803 -6.30593407 29.91209208 -10.03125 30.49609375 C-14.43821451 30.61278907 -17.64724142 30.68832413 -21.1640625 27.8125 C-25.64050019 23.00032949 -26.10638219 20.21438831 -25.98046875 13.8515625 C-25.39329478 8.79171763 -22.82097504 6.16622128 -19.1640625 2.875 C-13.00937162 -1.43328362 -7.2644454 -2.3859762 0 0 Z " fill="#EAEAEA" transform="translate(273.6640625,113.875)"/>
<path d="M0 0 C9.34763419 0.12035581 17.29264069 5.76013744 23.875 12 C28.3771307 16.84908389 30.75 20.72268089 30.75 27.5 C26.14502347 25.34868521 21.88994988 22.56049517 17.58984375 19.86523438 C10.13482177 15.30263946 2.71878042 13.13673981 -5.80859375 11.34375 C-6.61425781 11.0653125 -7.41992188 10.786875 -8.25 10.5 C-8.58 9.51 -8.91 8.52 -9.25 7.5 C-4.94127517 0.31879195 -4.94127517 0.31879195 0 0 Z " fill="#0B0B0B" transform="translate(346.25,232.5)"/>
<path d="M0 0 C0.66 0 1.32 0 2 0 C2.5326514 6.258654 0.81849506 10.45108785 -2 16 C-0.96875 16.185625 0.0625 16.37125 1.125 16.5625 C5.10413127 17.72949573 7.37511408 19.68965814 9.89453125 22.9453125 C11.8900979 26.65438691 11.80451236 29.93546363 11 34 C9.34232484 39.39956178 6.63004828 43.09562352 1.8828125 46.16796875 C-1.10175055 47.48687317 -3.81019327 47.32549048 -7 47 C-5.16441588 45.16441588 -3.3189513 43.35217319 -1.4375 41.5625 C2.1425189 37.9303966 2.1425189 37.9303966 2.9609375 33.11328125 C2.59782567 29.47543861 2.20155965 26.01266057 0 23 C-2.8435805 21.35009835 -5.5415317 20.535567 -8.75 19.875 C-9.54921875 19.70742187 -10.3484375 19.53984375 -11.171875 19.3671875 C-11.77515625 19.24601562 -12.3784375 19.12484375 -13 19 C-12 17 -12 17 -8.6875 15.3125 C-4.39505641 12.94151987 -2.99759769 10.45617946 -1 6 C-0.21546654 2.72687532 -0.21546654 2.72687532 0 0 Z " fill="#EAEAEA" transform="translate(431,191)"/>
<path d="M0 0 C4.0886269 2.94416082 7.25343216 5.70754883 8.37109375 10.78125 C8.61293494 15.12785513 8.31199115 18.333069 5.578125 21.81640625 C1.51469216 25.5104361 1.51469216 25.5104361 -1.171875 26.31640625 C-2.161875 25.98640625 -3.151875 25.65640625 -4.171875 25.31640625 C-3.181875 24.98640625 -2.191875 24.65640625 -1.171875 24.31640625 C1.0590079 19.267566 1.47620604 14.9087304 0.140625 9.56640625 C-1.54873414 6.67036201 -3.01980091 6.26202848 -6.171875 5.31640625 C-6.831875 4.98640625 -7.491875 4.65640625 -8.171875 4.31640625 C-14.54467563 3.77492646 -19.63630247 3.80604318 -25.171875 7.31640625 C-26.50520833 7.98307292 -27.83854167 8.64973958 -29.171875 9.31640625 C-27.55698385 3.66428722 -23.87741316 0.89463684 -18.921875 -1.99609375 C-12.2735928 -3.6581643 -5.99480261 -3.49696819 0 0 Z " fill="#EFEFEF" transform="translate(352.171875,137.68359375)"/>
<path d="M0 0 C1.21236328 0.01353516 1.21236328 0.01353516 2.44921875 0.02734375 C3.37154297 0.04474609 3.37154297 0.04474609 4.3125 0.0625 C2.3075482 1.39913454 0.28634606 2.71169943 -1.75 4 C-4.84747749 5.91006862 -4.84747749 5.91006862 -6.6875 9.0625 C-7.26820527 14.88198337 -7.26820527 14.88198337 -4.8125 20 C-2.18229551 22.58905416 -2.18229551 22.58905416 1.30078125 23.046875 C6.01963399 22.5710243 9.39607892 21.96823177 13.3125 19.0625 C11.742733 23.771801 9.58384042 26.44011399 5.5625 29.3125 C0.57835115 30.97388295 -3.31175296 30.72391685 -7.9375 28.5 C-11.79306326 25.08256893 -14.20440593 21.89205097 -15.0703125 16.8203125 C-15.39245341 10.44192244 -13.25900594 7.04544689 -9.125 2.25 C-6.29834075 -0.08506634 -3.49109908 -0.05059564 0 0 Z " fill="#EAEAEA" transform="translate(140.6875,182.9375)"/>
<path d="M0 0 C0.66 0.61875 1.32 1.2375 2 1.875 C5.70411034 4.49874482 8.57924515 5.10086342 13 6 C13.33 4.68 13.66 3.36 14 2 C15.30941581 4.43177222 16.08719417 6.39633715 16.6875 9.125 C17.77585102 12.40100279 17.77585102 12.40100279 21.625 13.375 C22.73875 13.58125 23.8525 13.7875 25 14 C24.67 14.66 24.34 15.32 24 16 C19.35386292 16.31678207 17.6193416 15.77482856 14 13 C11.9254644 12.8509288 11.9254644 12.8509288 10 14 C6.58870858 17.70368783 5.0947618 20.29428762 4.8125 25.375 C5.06613242 30.27856012 5.71568803 32.78511029 9.3125 36.1875 C11.83532099 37.88893741 14.13102807 39.01635248 17 40 C16.67 40.66 16.34 41.32 16 42 C7.01445534 42.4568921 7.01445534 42.4568921 3 39 C-1.21338207 33.42011564 -1.72962482 28.88436319 -1 22 C0.0425927 16.39606422 4.76686467 13.41604176 9 10 C6.75889733 8.87465998 4.5133996 7.7677589 2.25 6.6875 C1.5075 6.130625 0.765 5.57375 0 5 C-0.3125 2.3125 -0.3125 2.3125 0 0 Z " fill="#F1F1F1" transform="translate(78,228)"/>
<path d="M0 0 C3 1 3 1 4.6875 4.0625 C6.30947619 8.27273606 6.4998202 11.50161823 6 16 C3.49994886 20.64295212 0.45653239 24.55498095 -4.125 27.25 C-9.59244039 28.6762888 -14.8723757 28.69556948 -20.25 26.9375 C-23.72411267 24.48982971 -26.83759322 21.70217503 -29 18 C-28.505 16.515 -28.505 16.515 -28 15 C-27.608125 15.45375 -27.21625 15.9075 -26.8125 16.375 C-22.18100637 20.5273736 -16.80493263 20.42553623 -10.8828125 20.31640625 C-5.83384829 19.76225164 -3.27804092 17.5336491 -0.125 13.75 C1.76479546 9.13049999 1.58654821 4.75964463 0 0 Z " fill="#EEEEEE" transform="translate(387,158)"/>
<path d="M0 0 C2.27806591 1.8870546 4.06728993 3.74517159 6 6 C5.34 7.32 4.68 8.64 4 10 C3.59910156 9.61328125 3.19820312 9.2265625 2.78515625 8.828125 C-2.84418764 3.67108434 -8.74713981 -0.12811397 -16.5625 -0.4375 C-23.17904956 -0.102631 -29.39656253 2.140816 -34 7 C-35.54341623 9.92490027 -36.81914774 12.91263208 -38 16 C-38.66 14.68 -39.32 13.36 -40 12 C-40.99 12.33 -41.98 12.66 -43 13 C-41.52418879 6.44083906 -37.51241515 1.28274281 -31.90234375 -2.36328125 C-20.45316934 -8.2483709 -10.79181838 -6.88443586 0 0 Z " fill="#E5E5E5" transform="translate(228,75)"/>
<path d="M0 0 C3.12725963 1.46072641 5.11244094 3.11008199 7 6 C7.9375 9.375 7.9375 9.375 8 12 C7.113125 11.175 6.22625 10.35 5.3125 9.5 C0.06441123 5.75136516 -5.82512354 5.99995574 -12 7 C-16.02609885 8.9007976 -18.32479367 11.92517379 -20 16 C-20.27675932 18.22527536 -20.27675932 18.22527536 -20.1875 20.5 C-20.18105469 21.2528125 -20.17460937 22.005625 -20.16796875 22.78125 C-20.00303563 24.95990143 -19.59600906 26.90204811 -19 29 C-22.01574271 27.96008872 -22.97991051 27.03085171 -24.75 24.3125 C-26.61381491 19.37339049 -26.71754651 15.79386627 -24.75 10.875 C-18.48461325 0.58186463 -11.89414335 -1.67965515 0 0 Z " fill="#EAEAEA" transform="translate(198,127)"/>
<path d="M0 0 C2.9375 2.5 2.9375 2.5 5 5 C3.783125 4.79375 2.56625 4.5875 1.3125 4.375 C-2.34806773 3.90036156 -4.67611512 4.23418616 -8 6 C-8.47189072 13.50556308 -8.47189072 13.50556308 -5 20 C-0.13201162 23.24532559 5.48281763 22.40274918 11.125 21.5 C11.74375 21.335 12.3625 21.17 13 21 C8.90757974 25.31977694 5.84019108 28.23711405 -0.25 28.5 C-5.74461334 28.40009794 -9.18248845 25.76258333 -13 22 C-16.11027212 17.33459182 -15.60536455 12.46304595 -15 7 C-11.49805572 0.74652807 -7.00639747 -0.86043478 0 0 Z " fill="#ECECEC" transform="translate(228,162)"/>
<path d="M0 0 C1.4540625 0.99 1.4540625 0.99 2.9375 2 C2.9375 2.99 2.9375 3.98 2.9375 5 C2.37804687 4.67902344 1.81859375 4.35804688 1.2421875 4.02734375 C-2.75991672 2.24335492 -6.77632403 2.31826178 -11.0625 3 C-14.18427233 4.68287927 -16.45387035 6.7827407 -18.0625 10 C-18.4976171 16.15573329 -18.4976171 16.15573329 -17.0625 22 C-14.68624655 23.18391223 -14.68624655 23.18391223 -12.0625 24 C-11.0725 24.66 -10.0825 25.32 -9.0625 26 C-10.0625 27 -10.0625 27 -13.1875 27.375 C-18.03564128 26.90582504 -20.62051338 25.36756529 -24.0625 22 C-26.50710938 18.06736752 -26.91286352 13.5266826 -26.0625 9 C-24.00151495 4.8698188 -21.08040834 1.33297904 -17.0625 -1 C-11.20757734 -2.74165421 -5.40246609 -3.10751606 0 0 Z " fill="#E5E5E5" transform="translate(162.0625,150)"/>
<path d="M0 0 C4.41299538 1.20354419 7.08112557 2.43248681 10 6 C11.676194 11.02858199 11.60642735 15.34030411 9.8125 20.25 C6.60750153 25.11275631 2.24514656 28.20322418 -3.40234375 29.58984375 C-10.29195743 30.53464439 -10.29195743 30.53464439 -14.0625 27.6875 C-16 25 -16 25 -17 23 C-16.19175781 23.03480469 -15.38351562 23.06960937 -14.55078125 23.10546875 C-13.48214844 23.13253906 -12.41351563 23.15960938 -11.3125 23.1875 C-9.72888672 23.23970703 -9.72888672 23.23970703 -8.11328125 23.29296875 C-3.96744224 22.90283333 -1.33461936 21.57936331 1.36328125 18.38671875 C3.55992757 14.45445065 4.76743965 11.60463788 4 7 C2.8310457 4.51093352 1.4891634 2.32681781 0 0 Z " fill="#EEEEEE" transform="translate(414,175)"/>
<path d="M0 0 C2.84379394 0.35486311 5.63140036 0.88283562 8.4375 1.4609375 C9.58496704 1.68688095 9.58496704 1.68688095 10.75561523 1.91738892 C13.17207467 2.3952998 15.58596103 2.88502659 18 3.375 C19.61703682 3.69607229 21.23422356 4.01639053 22.8515625 4.3359375 C30.25402847 5.80492486 37.6433984 7.31411213 45 9 C44.360625 9.309375 43.72125 9.61875 43.0625 9.9375 C41.06389179 10.8345163 41.06389179 10.8345163 40 12 C37.80949979 11.90982004 35.621534 11.75333792 33.4375 11.5625 C32.23996094 11.46066406 31.04242188 11.35882813 29.80859375 11.25390625 C28.88175781 11.17011719 27.95492187 11.08632813 27 11 C26.67 11.99 26.34 12.98 26 14 C25.81050781 13.37222656 25.62101562 12.74445313 25.42578125 12.09765625 C24.11205671 9.70048191 24.11205671 9.70048191 21.04296875 9.05859375 C19.77066406 8.85363281 18.49835938 8.64867187 17.1875 8.4375 C16.49914062 8.32237061 15.81078125 8.20724121 15.1015625 8.08862305 C12.73743939 7.7021598 10.37005953 7.34817532 8 7 C7.07268066 6.86174805 6.14536133 6.72349609 5.18994141 6.58105469 C-0.86836077 5.68360347 -6.93153825 4.82582772 -13 4 C-9.3808222 -1.0353778 -5.66194863 -0.37142179 0 0 Z " fill="#161616" transform="translate(263,354)"/>
<path d="M0 0 C4.6855233 1.64861005 8.03730646 3.99164992 11 8 C11.88746035 12.31382903 11.79024839 15.73560257 9.4375 19.5 C6.20228499 21.49090154 3.78890702 21.93234095 0 22 C-2.4375 20.5625 -2.4375 20.5625 -4 19 C-3.67 18.01 -3.34 17.02 -3 16 C-2.67 16.33 -2.34 16.66 -2 17 C0.5 17.16666667 0.5 17.16666667 3 17 C4.36290958 15.83990094 4.36290958 15.83990094 4.4375 12.6875 C4.35464557 8.90574695 4.35464557 8.90574695 1.75 6.5625 C-3.47914171 3.63518144 -10.68720242 4.27293386 -16.3671875 5.51953125 C-16.90601563 5.67808594 -17.44484375 5.83664063 -18 6 C-11.97113827 -0.18751598 -8.51870213 -0.66363827 0 0 Z " fill="#EAEAEA" transform="translate(317,104)"/>
<path d="M0 0 C1.65 0 3.3 0 5 0 C4.34 1.65 3.68 3.3 3 5 C3.8353125 4.98646484 3.8353125 4.98646484 4.6875 4.97265625 C11.74201468 5.24673368 15.2066935 7.99772101 20 13 C19.01 13.33 18.02 13.66 17 14 C17.02094727 14.55985596 17.04189453 15.11971191 17.06347656 15.6965332 C17.14666202 18.23500586 17.19866381 20.773192 17.25 23.3125 C17.30027344 24.63411133 17.30027344 24.63411133 17.3515625 25.98242188 C17.45066069 32.49812787 17.45066069 32.49812787 15.109375 35.10546875 C13 36 13 36 11 36 C11 35.34 11 34.68 11 34 C11.66 34 12.32 34 13 34 C14.63663806 29.09008581 14.48531826 24.12357423 14 19 C11.97211102 15.0253376 9.38668913 13.17438507 5.21484375 11.55859375 C0.56985623 10.3871066 -4.23043339 10.22712222 -9 10 C-7.13752011 8.13207426 -5.26269408 6.28024898 -3.375 4.4375 C-0.99358358 2.24040181 -0.99358358 2.24040181 0 0 Z " fill="#ECECEC" transform="translate(389,118)"/>
<path d="M0 0 C0.66 0.61875 1.32 1.2375 2 1.875 C5.70411034 4.49874482 8.57924515 5.10086342 13 6 C13.33 4.68 13.66 3.36 14 2 C15.30941581 4.43177222 16.08719417 6.39633715 16.6875 9.125 C17.77585102 12.40100279 17.77585102 12.40100279 21.625 13.375 C22.73875 13.58125 23.8525 13.7875 25 14 C24.67 14.66 24.34 15.32 24 16 C19.35386292 16.31678207 17.6193416 15.77482856 14 13 C11.39131389 13.15810219 10.34800482 13.65199518 8.5 15.5 C6.69823936 17.30176064 5.45004481 17.4640527 3 18 C2.01 18.66 1.02 19.32 0 20 C1.38188453 16.78956118 2.92421903 14.95063635 5.625 12.75 C6.25664063 12.22921875 6.88828125 11.7084375 7.5390625 11.171875 C8.26222656 10.59179688 8.26222656 10.59179688 9 10 C6.75889733 8.87465998 4.5133996 7.7677589 2.25 6.6875 C1.5075 6.130625 0.765 5.57375 0 5 C-0.3125 2.3125 -0.3125 2.3125 0 0 Z " fill="#E4E4E4" transform="translate(78,228)"/>
<path d="M0 0 C3.37679542 0.60299918 5.50006621 1.63408328 8 4 C9.14994178 9.12318888 8.78134647 13.67171099 6.125 18.1875 C1.75895872 20.71980394 -2.0679172 21.08123232 -7 20 C-9.625 17.5 -9.625 17.5 -11 15 C-10.32453125 15.05800781 -9.6490625 15.11601562 -8.953125 15.17578125 C-3.21916951 15.5778262 -3.21916951 15.5778262 1.625 12.875 C3.22056741 9.53881361 3.54399808 7.65255855 3 4 C1.62073227 1.65738392 1.62073227 1.65738392 0 0 Z " fill="#EEEEEE" transform="translate(169,177)"/>
<path d="M0 0 C0.90878906 0.6496875 0.90878906 0.6496875 1.8359375 1.3125 C7.94899062 5.37532915 12.64167997 7.33210966 20 6 C23.40241824 4.6351132 23.40241824 4.6351132 26 3 C26.66 3 27.32 3 28 3 C28 2.34 28 1.68 28 1 C28.66 1 29.32 1 30 1 C28.40009971 6.23603731 25.55909089 8.23510973 21.1875 11.25 C16.51323255 12.85260598 12.35928496 12.47974763 7.8125 10.875 C4.34323262 8.56215508 2.41154938 6.4045403 0 3 C0 2.01 0 1.02 0 0 Z " fill="#E5E5E5" transform="translate(298,174)"/>
<path d="M0 0 C5.05510556 0.44603873 7.40166738 2.64700824 11 6 C12.16297973 8.32595946 12.16600691 9.78723231 12.1875 12.375 C12.20167969 13.14585938 12.21585937 13.91671875 12.23046875 14.7109375 C11.9724177 17.27395304 11.39162459 18.83944385 10 21 C7.375 22.25 7.375 22.25 5 23 C5.33 22.01 5.66 21.02 6 20 C6.40158768 16.93645968 6.48881362 14.05642803 6 11 C3.56246638 7.90367351 1.26549269 6.17699513 -2 4 C-1.34 2.68 -0.68 1.36 0 0 Z " fill="#EBEBEB" transform="translate(338,80)"/>
<path d="M0 0 C2 2 2 2 2.4375 4.875 C2 8 2 8 -0.125 10.375 C-3.44258871 12.25015884 -5.24967051 12.58338459 -9 12 C-11 9 -11 9 -10.9375 6.5625 C-9.08391232 1.496027 -5.32642769 -0.86374503 0 0 Z " fill="#ECECEC" transform="translate(235,264)"/>
<path d="M0 0 C6.78820327 4.43311234 13.75789626 10.37152062 17 18 C17.50931217 20.79263304 17.60143484 23.21766127 17 26 C14.59906707 29.22410993 13.05749882 30.69450034 9.1875 31.8125 C8.1046875 31.9053125 8.1046875 31.9053125 7 32 C7.639375 31.360625 8.27875 30.72125 8.9375 30.0625 C11.62450708 26.07270162 12.07770123 22.75704225 12 18 C11.48959656 15.08997479 11.48959656 15.08997479 10 13 C9.360625 12.690625 8.72125 12.38125 8.0625 12.0625 C5.01297404 10.49153208 4.42643117 8.03891857 3 5 C2.01834406 3.98198643 1.02408568 2.9753197 0 2 C0 1.34 0 0.68 0 0 Z " fill="#1A1A1A" transform="translate(316,310)"/>
<path d="M0 0 C1.4540625 0.99 1.4540625 0.99 2.9375 2 C2.9375 2.99 2.9375 3.98 2.9375 5 C2.37804687 4.67902344 1.81859375 4.35804688 1.2421875 4.02734375 C-2.75935306 2.24360618 -6.77684837 2.31727001 -11.0625 3 C-13.60973125 4.39837797 -15.01787392 5.85314262 -17.0625 8 C-17.7225 8.66 -18.3825 9.32 -19.0625 10 C-20.3825 8.35 -21.7025 6.7 -23.0625 5 C-16.71234109 -1.89445825 -8.67128826 -4.96004724 0 0 Z " fill="#EEEEEE" transform="translate(162.0625,150)"/>
<path d="M0 0 C0.66 0.66 1.32 1.32 2 2 C1.8125 5.5 1.8125 5.5 1 9 C-2.44107266 11.29404844 -3.96839809 11.26293056 -8 11 C-9 10 -9 10 -9.3125 7.1875 C-9 4 -9 4 -7.3125 1.625 C-4.57772115 -0.29673649 -3.27359086 -0.51688277 0 0 Z " fill="#EDEDED" transform="translate(339,280)"/>
<path d="M0 0 C7.28783833 4.00116614 13.47142543 7.59331052 16 16 C15.6015625 18.25 15.6015625 18.25 15 20 C12 16.25 12 16.25 12 14 C11.195625 13.62875 11.195625 13.62875 10.375 13.25 C8 12 8 12 5.125 10 C2.10371329 8.06637651 -0.56787452 6.98060728 -4 6 C-2.68 5.34 -1.36 4.68 0 4 C0 2.68 0 1.36 0 0 Z " fill="#0D0D0D" transform="translate(256,258)"/>
<path d="M0 0 C3.91810345 2.2112069 3.91810345 2.2112069 5.125 4.625 C4.58875 4.4084375 4.0525 4.191875 3.5 3.96875 C-7.49342779 0.06319013 -19.15786696 0.05704152 -29.8359375 4.84765625 C-30.50882813 5.10417969 -31.18171875 5.36070312 -31.875 5.625 C-32.535 5.295 -33.195 4.965 -33.875 4.625 C-32.64922398 3.82809351 -31.41918995 3.03773516 -30.1875 2.25 C-29.16076172 1.58871094 -29.16076172 1.58871094 -28.11328125 0.9140625 C-19.57966175 -4.00058748 -8.88485165 -4.34626942 0 0 Z " fill="#3E3E3E" transform="translate(255.875,250.375)"/>
<path d="M0 0 C5.875 2.75 5.875 2.75 7 5 C7.28394278 7.93407542 7.48994001 10.15046384 7 13 C4.9375 15.5 4.9375 15.5 2 17 C-1.8125 17.25 -1.8125 17.25 -5 17 C-5 16.34 -5 15.68 -5 15 C-3.36368108 13.95107762 -1.69514137 12.95093297 0 12 C1.88059033 10.11940967 1.12361218 7.50109962 1.1328125 5.0078125 C1.07126531 2.79225982 1.07126531 2.79225982 0 0 Z " fill="#E6E6E6" transform="translate(417,242)"/>
<path d="M0 0 C0.66 0.99 1.32 1.98 2 3 C0.4221875 3.0928125 0.4221875 3.0928125 -1.1875 3.1875 C-5.77990511 4.16620928 -7.31119897 5.1704955 -10 9 C-10.40542455 11.80678537 -10.24224516 14.14150712 -10 17 C-13 15 -13 15 -13.875 11.1875 C-14.23180938 7.25546061 -13.56265185 5.11179153 -11 2 C-6.91569792 -0.72286806 -4.85409123 -0.38524534 0 0 Z " fill="#E0E0E0" transform="translate(121,140)"/>
<path d="M0 0 C1.5 1.375 1.5 1.375 3 3 C3 3.66 3 4.32 3 5 C4.41433206 5.2236337 5.83167618 5.42826476 7.25 5.625 C8.43335938 5.79902344 8.43335938 5.79902344 9.640625 5.9765625 C12.36576763 6.00363345 13.72931294 5.47395476 16 4 C17.26804566 1.9664052 17.26804566 1.9664052 18 0 C18.6875 1.6875 18.6875 1.6875 19 4 C17.74739213 6.76892266 16.6586299 8.52306111 14.1875 10.3125 C11.19277955 11.25369786 9.12650508 11.44664358 6 11 C3.1875 8.5625 3.1875 8.5625 1 6 C0.67 5.67 0.34 5.34 0 5 C-0.04063832 3.33382885 -0.042721 1.66611905 0 0 Z " fill="#F3F3F3" transform="translate(305,160)"/>
<path d="M0 0 C0.33 0.66 0.66 1.32 1 2 C0.34773438 2.08636719 -0.30453125 2.17273438 -0.9765625 2.26171875 C-7.13462442 3.25173166 -10.71649344 4.39523045 -15 9 C-16.39819512 11.6514482 -16.39819512 11.6514482 -17 14 C-17.33 14 -17.66 14 -18 14 C-18.36301342 10.99217453 -18.60722753 8.91573907 -18 6 C-12.85108414 -0.49150951 -7.79456481 -1.38290666 0 0 Z " fill="#E3E3E3" transform="translate(234,119)"/>
<path d="M0 0 C2.75903196 2.24171347 3.90469787 3.36011426 4.4375 6.9375 C3.93490012 10.45569916 3.27731201 12.26722559 1 15 C-2.1875 16.3125 -2.1875 16.3125 -5 17 C-4.690625 16.505 -4.38125 16.01 -4.0625 15.5 C-2.58355618 12.02013219 -2.37597149 8.75971491 -2 5 C-1.34 5 -0.68 5 0 5 C-0.2784375 4.0409375 -0.2784375 4.0409375 -0.5625 3.0625 C-0.706875 2.381875 -0.85125 1.70125 -1 1 C-0.67 0.67 -0.34 0.34 0 0 Z " fill="#DADADA" transform="translate(268,76)"/>
<path d="M0 0 C3.77190501 0.25572237 5.15444488 0.51430047 7.6875 3.25 C7.6875 4.24 7.6875 5.23 7.6875 6.25 C3.3975 5.92 -0.8925 5.59 -5.3125 5.25 C-4.07692308 0.30769231 -4.07692308 0.30769231 0 0 Z " fill="#0E0E0E" transform="translate(287.3125,328.75)"/>
<path d="M0 0 C5.18964448 1.17244157 8.49336297 4.06831606 12 8 C11.34 7.731875 10.68 7.46375 10 7.1875 C9.01 6.795625 8.02 6.40375 7 6 C5.906875 5.46375 4.81375 4.9275 3.6875 4.375 C-2.78855802 1.88228134 -10.18425729 2.77666862 -17 3 C-12.08679853 -1.51871084 -6.29335798 -0.56094644 0 0 Z " fill="#3D3D3D" transform="translate(351,267)"/>
<path d="M0 0 C0.66 0 1.32 0 2 0 C1.67 0.99 1.34 1.98 1 3 C0.88312662 4.47586615 0.82498258 5.95706612 0.8125 7.4375 C0.79832031 8.19933594 0.78414063 8.96117187 0.76953125 9.74609375 C1.02387334 12.23347315 1.75982804 13.84808106 3 16 C-0.65316671 14.75023244 -1.78065836 14.32901247 -4 11 C-4.51091324 7.08299846 -4.30691974 5.47061027 -2.125 2.125 C-1.42375 1.42375 -0.7225 0.7225 0 0 Z " fill="#444444" transform="translate(272,320)"/>
<path d="M0 0 C3.96 1.98 7.92 3.96 12 6 C11.01 6.33 10.02 6.66 9 7 C8.67 7.99 8.34 8.98 8 10 C4.7 8.02 1.4 6.04 -2 4 C-1.34 2.68 -0.68 1.36 0 0 Z " fill="#E5E5E5" transform="translate(353,270)"/>
<path d="M0 0 C0.66 0 1.32 0 2 0 C2.144375 1.134375 2.28875 2.26875 2.4375 3.4375 C2.61171478 6.80777201 2.61171478 6.80777201 4 8 C4.04092937 10.33297433 4.04241723 12.66705225 4 15 C1.16166072 13.3261076 -0.70059186 12.0535424 -1.625 8.80078125 C-1.92513559 6.47097876 -2.17649778 4.3442526 -2 2 C-1.34 1.34 -0.68 0.68 0 0 Z " fill="#EFEFEF" transform="translate(74,217)"/>
<path d="M0 0 C3 1 3 1 4.6875 4.0625 C6.30563215 8.22341125 6.43688139 11.55837249 6 16 C4.5 18.5 4.5 18.5 3 20 C3 18.02 3 16.04 3 14 C2.34 13.67 1.68 13.34 1 13 C1.01160156 12.31292969 1.02320313 11.62585938 1.03515625 10.91796875 C1.04417969 10.01691406 1.05320312 9.11585938 1.0625 8.1875 C1.07410156 7.29417969 1.08570313 6.40085938 1.09765625 5.48046875 C1.11009967 2.86586209 1.11009967 2.86586209 0 0 Z " fill="#DDDDDD" transform="translate(387,158)"/>
<path d="M0 0 C1.93742341 -0.02703381 3.87495479 -0.04641125 5.8125 -0.0625 C6.89144531 -0.07410156 7.97039062 -0.08570313 9.08203125 -0.09765625 C12 0 12 0 15 1 C14.34 2.32 13.68 3.64 13 5 C11.39479996 4.93976735 9.79065673 4.85091401 8.1875 4.75 C6.84751953 4.68039062 6.84751953 4.68039062 5.48046875 4.609375 C3 4 3 4 1.17578125 1.953125 C0.78777344 1.30859375 0.39976562 0.6640625 0 0 Z " fill="#F2F2F2" transform="translate(338,269)"/>
<path d="M0 0 C3.35595828 0.59927826 5.37801226 1.84622436 8 4 C7.55530671 9.03985731 5.28656638 11.37634988 2 15 C1.34 14.67 0.68 14.34 0 14 C0.495 13.46375 0.99 12.9275 1.5 12.375 C3.43102443 9.31754465 3.44522837 7.561827 3 4 C1.62073227 1.65738392 1.62073227 1.65738392 0 0 Z " fill="#D9D9D9" transform="translate(169,177)"/>
<path d="M0 0 C3.96 0.33 7.92 0.66 12 1 C11.34 2.32 10.68 3.64 10 5 C11.98 5 13.96 5 16 5 C16 5.33 16 5.66 16 6 C12.64178963 6.65860048 9.42719874 7.13624949 6 7 C3.12353321 4.82797406 1.59720545 3.19441089 0 0 Z " fill="#C4C4C4" transform="translate(397,198)"/>
<path d="M0 0 C5.65370024 3.61836815 9.2430054 7.45396035 13 13 C12.01 13.66 11.02 14.32 10 15 C10 14.34 10 13.68 10 13 C9.401875 12.79375 8.80375 12.5875 8.1875 12.375 C5.1865771 10.4887056 4.48626441 8.16638939 3 5 C2.01834406 3.98198643 1.02408568 2.9753197 0 2 C0 1.34 0 0.68 0 0 Z " fill="#272727" transform="translate(316,310)"/>
<path d="M0 0 C3.00091319 2.5722113 4.52608532 5.35030652 6 9 C6.1875 12.875 6.1875 12.875 6 16 C3.45711753 14.72855876 3.14374137 13.5988174 1.9375 11.0625 C1.59589844 10.35222656 1.25429688 9.64195312 0.90234375 8.91015625 C0.60457031 8.27980469 0.30679687 7.64945312 0 7 C-0.33 6.34 -0.66 5.68 -1 5 C-0.34 5 0.32 5 1 5 C0.67 3.35 0.34 1.7 0 0 Z " fill="#272727" transform="translate(365,284)"/>
<path d="M0 0 C2.5625 2.25 2.5625 2.25 5 5 C4.8125 7.3125 4.8125 7.3125 4 9 C3.236875 8.195625 2.47375 7.39125 1.6875 6.5625 C-2.59878391 2.90624818 -7.58536645 3.10598037 -13 3 C-13 2.67 -13 2.34 -13 2 C-12.14535156 1.93941406 -11.29070312 1.87882813 -10.41015625 1.81640625 C-8.75306641 1.69072266 -8.75306641 1.69072266 -7.0625 1.5625 C-5.96035156 1.48128906 -4.85820312 1.40007812 -3.72265625 1.31640625 C-1.08890097 1.29581916 -1.08890097 1.29581916 0 0 Z " fill="#C5C5C5" transform="translate(201,130)"/>
<path d="M0 0 C3.98381075 2.16264012 6.88983545 4.71211176 10 8 C9.34 9.32 8.68 10.64 8 12 C5.69 10.02 3.38 8.04 1 6 C1.33 4.68 1.66 3.36 2 2 C1.34 2 0.68 2 0 2 C0 1.34 0 0.68 0 0 Z " fill="#DEDEDE" transform="translate(224,73)"/>
<path d="M0 0 C3.3 1.65 6.6 3.3 10 5 C9.67 5.66 9.34 6.32 9 7 C1.49230769 7.36923077 1.49230769 7.36923077 -1 5.5 C-1.33 5.005 -1.66 4.51 -2 4 C-1.34 2.68 -0.68 1.36 0 0 Z " fill="#CECECE" transform="translate(85,263)"/>
<path d="M0 0 C1.5 1.375 1.5 1.375 3 3 C3 3.66 3 4.32 3 5 C4.98 5.66 6.96 6.32 9 7 C8.67 7.66 8.34 8.32 8 9 C9.32 9.66 10.64 10.32 12 11 C9.3125 11.3125 9.3125 11.3125 6 11 C3.1875 8.5625 3.1875 8.5625 1 6 C0.67 5.67 0.34 5.34 0 5 C-0.04063832 3.33382885 -0.042721 1.66611905 0 0 Z " fill="#D5D5D5" transform="translate(305,160)"/>
<path d="M0 0 C1.32 0.99 2.64 1.98 4 3 C3.67 3.99 3.34 4.98 3 6 C2.34 6 1.68 6 1 6 C-0.57840572 7.55705194 -0.57840572 7.55705194 -2.125 9.5 C-2.66382813 10.1496875 -3.20265625 10.799375 -3.7578125 11.46875 C-4.16773438 11.9740625 -4.57765625 12.479375 -5 13 C-6 10 -6 10 -4.78515625 7.51953125 C-4.21667969 6.62621094 -3.64820313 5.73289062 -3.0625 4.8125 C-2.49660156 3.91144531 -1.93070313 3.01039063 -1.34765625 2.08203125 C-0.90292969 1.39496094 -0.45820313 0.70789063 0 0 Z " fill="#2A2A2A" transform="translate(216,267)"/>
<path d="M0 0 C0.33 1.32 0.66 2.64 1 4 C-2.3 4.33 -5.6 4.66 -9 5 C-6.40100021 -0.19799959 -5.44050551 -0.1431712 0 0 Z " fill="#171717" transform="translate(321,334)"/>
<path d="M0 0 C-1 1 -1 1 -4.25 1.3125 C-8.52452339 0.95628972 -9.97574144 -0.06738563 -13 -3 C-7.51451894 -4.5672803 -4.61677582 -3.07785055 0 0 Z " fill="#D3D3D3" transform="translate(153,176)"/>
<path d="M0 0 C0.66 0.33 1.32 0.66 2 1 C1.67 1.99 1.34 2.98 1 4 C0.9314505 5.89470816 0.91519628 7.7916834 0.9375 9.6875 C0.94652344 10.68136719 0.95554687 11.67523438 0.96484375 12.69921875 C0.97644531 13.45847656 0.98804687 14.21773437 1 15 C-2 13 -2 13 -2.875 9.1875 C-3.25204065 5.28192795 -2.45444152 3.14168515 0 0 Z " fill="#D9D9D9" transform="translate(110,142)"/>
<path d="M0 0 C3.06081203 2.75473082 4.89882863 4.99574049 6 9 C5.625 11.3125 5.625 11.3125 5 13 C2 9.25 2 9.25 2 7 C1.01 6.67 0.02 6.34 -1 6 C-0.67 4.02 -0.34 2.04 0 0 Z " fill="#353535" transform="translate(266,265)"/>
<path d="M0 0 C3.1875 -0.3125 3.1875 -0.3125 7 0 C9.9375 2.5 9.9375 2.5 12 5 C10.7625 4.79375 9.525 4.5875 8.25 4.375 C4.88090165 3.93892876 2.87158079 3.96596361 0 6 C0 5.01 0 4.02 0 3 C0.66 2.67 1.32 2.34 2 2 C1.34 1.34 0.68 0.68 0 0 Z " fill="#D4D4D4" transform="translate(221,162)"/>
<path d="M0 0 C1.4540625 0.0309375 1.4540625 0.0309375 2.9375 0.0625 C2.9375 0.3925 2.9375 0.7225 2.9375 1.0625 C2.050625 1.26875 1.16375 1.475 0.25 1.6875 C-3.98528682 3.44554358 -5.36743333 5.41623333 -8.0625 9.0625 C-7.7325 9.7225 -7.4025 10.3825 -7.0625 11.0625 C-8.3825 11.3925 -9.7025 11.7225 -11.0625 12.0625 C-9.78249898 7.05885967 -7.88921924 4.49673522 -4.0625 1.0625 C-3.0625 0.0625 -3.0625 0.0625 0 0 Z " fill="#CBCBCB" transform="translate(118.0625,293.9375)"/>
<path d="M0 0 C0.66 0.33 1.32 0.66 2 1 C2 1.66 2 2.32 2 3 C4.31 3.66 6.62 4.32 9 5 C8.67 5.66 8.34 6.32 8 7 C5.25 7.25 5.25 7.25 2 7 C-0.375 5 -0.375 5 -2 3 C-1.34 3 -0.68 3 0 3 C0 2.01 0 1.02 0 0 Z " fill="#DCDCDC" transform="translate(94,237)"/>
<path d="M0 0 C0.33 1.32 0.66 2.64 1 4 C1.66 4 2.32 4 3 4 C2.67 8.62 2.34 13.24 2 18 C-0.16969145 13.66061709 -0.21326104 11.51609592 -0.125 6.75 C-0.10695313 5.48671875 -0.08890625 4.2234375 -0.0703125 2.921875 C-0.04710938 1.95765625 -0.02390625 0.9934375 0 0 Z " fill="#282828" transform="translate(104,301)"/>
<path d="M0 0 C2 1 2 1 4 4 C0.66666667 5.66666667 -2.66666667 7.33333333 -6 9 C-4.68775452 5.06326356 -3.08089673 2.77280706 0 0 Z " fill="#D7D7D7" transform="translate(329,138)"/>
<path d="M0 0 C2.41071254 4.82142509 3.1150362 6.34520961 2.5625 11.625 C2.40974609 13.12933594 2.40974609 13.12933594 2.25390625 14.6640625 C2.17011719 15.43492187 2.08632812 16.20578125 2 17 C1.34 16.67 0.68 16.34 0 16 C0 10.72 0 5.44 0 0 Z " fill="#333333" transform="translate(122,316)"/>
<path d="M0 0 C0.66 0.33 1.32 0.66 2 1 C-3.92941176 8.24705882 -3.92941176 8.24705882 -7 11 C-7.66 11 -8.32 11 -9 11 C-7.59928507 5.70841026 -4.14512755 3.22521956 0 0 Z " fill="#2D2D2D" transform="translate(249,78)"/>
<path d="M0 0 C3.3 0 6.6 0 10 0 C10 0.66 10 1.32 10 2 C10.66 2.33 11.32 2.66 12 3 C10.37581255 3.08090971 8.75048255 3.13914995 7.125 3.1875 C5.76761719 3.23970703 5.76761719 3.23970703 4.3828125 3.29296875 C3.20332031 3.14794922 3.20332031 3.14794922 2 3 C1.34 2.01 0.68 1.02 0 0 Z " fill="#232323" transform="translate(134,348)"/>
<path d="M0 0 C1.0828125 0.7115625 1.0828125 0.7115625 2.1875 1.4375 C4.89475226 2.94152903 6.96194275 3.56599182 10 4 C10 4.66 10 5.32 10 6 C1.42857143 5.14285714 1.42857143 5.14285714 -2 3 C-1.34 2.01 -0.68 1.02 0 0 Z " fill="#D2D2D2" transform="translate(236,346)"/>
<path d="M0 0 C6.625 0.75 6.625 0.75 10 3 C8 5 8 5 5 7 C4.731875 6.401875 4.46375 5.80375 4.1875 5.1875 C3.01506533 3.02775192 1.80630718 1.64209744 0 0 Z " fill="#D9D9D9" transform="translate(245,262)"/>
<path d="M0 0 C0.66 0.99 1.32 1.98 2 3 C2.33 2.34 2.66 1.68 3 1 C5.64 1 8.28 1 11 1 C11 1.33 11 1.66 11 2 C9.88625 2.226875 8.7725 2.45375 7.625 2.6875 C3.83961627 3.60623658 3.83961627 3.60623658 2.5625 6.625 C2.376875 7.40875 2.19125 8.1925 2 9 C0.4375 7.875 0.4375 7.875 -1 6 C-0.6875 2.8125 -0.6875 2.8125 0 0 Z " fill="#DEDEDE" transform="translate(287,364)"/>
<path d="M0 0 C2.5 1.3125 2.5 1.3125 5 3 C5 3.99 5 4.98 5 6 C0.71 5.67 -3.58 5.34 -8 5 C-8 4.67 -8 4.34 -8 4 C-5.36 3.67 -2.72 3.34 0 3 C0 2.01 0 1.02 0 0 Z " fill="#343434" transform="translate(290,329)"/>
<path d="M0 0 C0.99 0.33 1.98 0.66 3 1 C3 2.98 3 4.96 3 7 C1.35 7.66 -0.3 8.32 -2 9 C-1.34 6.03 -0.68 3.06 0 0 Z " fill="#F8F8F8" transform="translate(392,110)"/>
<path d="M0 0 C0.33 1.32 0.66 2.64 1 4 C4.63 4 8.26 4 12 4 C12 4.99 12 5.98 12 7 C11.34 6.67 10.68 6.34 10 6 C8.17036589 5.79670732 6.33591632 5.63527804 4.5 5.5 C-0.77777778 5.11111111 -0.77777778 5.11111111 -3 4 C-3 3.34 -3 2.68 -3 2 C-2.01 1.34 -1.02 0.68 0 0 Z " fill="#C5C5C5" transform="translate(350,307)"/>
<path d="M0 0 C1.65 0 3.3 0 5 0 C5.66 1.98 6.32 3.96 7 6 C4.03 5.01 1.06 4.02 -2 3 C-1.34 2.67 -0.68 2.34 0 2 C0 1.34 0 0.68 0 0 Z " fill="#E1E1E1" transform="translate(93,202)"/>
<path d="M0 0 C2.475 0.495 2.475 0.495 5 1 C4.67 1.99 4.34 2.98 4 4 C3.34 4 2.68 4 2 4 C2 7.96 2 11.92 2 16 C1.67 16 1.34 16 1 16 C0.67 10.72 0.34 5.44 0 0 Z " fill="#E0E0E0" transform="translate(183,194)"/>
<path d="M0 0 C3.3 0.33 6.6 0.66 10 1 C9.34 2.32 8.68 3.64 8 5 C5.6875 4.75 5.6875 4.75 3 4 C2.01 2.68 1.02 1.36 0 0 Z " fill="#CBCBCB" transform="translate(158,192)"/>
<path d="M0 0 C-5.14285714 4.42857143 -5.14285714 4.42857143 -9 5 C-9 4.01 -9 3.02 -9 2 C-9.99 1.67 -10.98 1.34 -12 1 C-10.37681021 0.63762737 -8.7513642 0.28534843 -7.125 -0.0625 C-6.22007812 -0.25972656 -5.31515625 -0.45695313 -4.3828125 -0.66015625 C-2 -1 -2 -1 0 0 Z " fill="#D2D2D2" transform="translate(241,184)"/>
<path d="M0 0 C2.64 0 5.28 0 8 0 C8 0.99 8 1.98 8 3 C5.21176345 4.0326802 4.1322726 4.04509293 1.25 3.0625 C0.5075 2.711875 -0.235 2.36125 -1 2 C-0.67 1.34 -0.34 0.68 0 0 Z " fill="#FAFAFA" transform="translate(330,80)"/>
<path d="M0 0 C0.33 0.99 0.66 1.98 1 3 C1.66 3 2.32 3 3 3 C2 6 2 6 -1 8 C-3.1875 7.625 -3.1875 7.625 -5 7 C-4.0409375 6.1028125 -4.0409375 6.1028125 -3.0625 5.1875 C-0.79689611 3.09189663 -0.79689611 3.09189663 0 0 Z " fill="#2B2B2B" transform="translate(328,334)"/>
<path d="M0 0 C0.33 0.66 0.66 1.32 1 2 C1.66 2 2.32 2 3 2 C2.75 3.875 2.75 3.875 2 6 C0.125 7.3125 0.125 7.3125 -2 8 C-2.99 7.67 -3.98 7.34 -5 7 C-4.01 6.67 -3.02 6.34 -2 6 C-0.77479736 2.99152582 -0.77479736 2.99152582 0 0 Z " fill="#D9D9D9" transform="translate(353,156)"/>
<path d="M0 0 C0.66 0.33 1.32 0.66 2 1 C-0.97 3.97 -3.94 6.94 -7 10 C-7.66 9.67 -8.32 9.34 -9 9 C-6.21000549 5.51250686 -3.74764169 2.49842779 0 0 Z " fill="#191919" transform="translate(134,82)"/>
<path d="M0 0 C2.5 1.3125 2.5 1.3125 5 3 C5 3.99 5 4.98 5 6 C4.01 6.33 3.02 6.66 2 7 C0.35 5.35 -1.3 3.7 -3 2 C-2.01 2 -1.02 2 0 2 C0 1.34 0 0.68 0 0 Z " fill="#E8E8E8" transform="translate(263,75)"/>
<path d="M0 0 C2.475 0.99 2.475 0.99 5 2 C3.68 3.32 2.36 4.64 1 6 C0.67 5.67 0.34 5.34 0 5 C-2.32817964 4.63239269 -4.6618385 4.29758419 -7 4 C-7 3.67 -7 3.34 -7 3 C-4.69 3 -2.38 3 0 3 C0 2.01 0 1.02 0 0 Z " fill="#DBDBDB" transform="translate(322,335)"/>
<path d="M0 0 C0.7940625 0.25265625 1.588125 0.5053125 2.40625 0.765625 C4.5 1.75 4.5 1.75 6.5 4.75 C4.89402675 4.29803755 3.29027492 3.83817673 1.6875 3.375 C0.79417969 3.11976563 -0.09914062 2.86453125 -1.01953125 2.6015625 C-3.5 1.75 -3.5 1.75 -6.5 -0.25 C-3.813538 -1.593231 -2.80702886 -0.92960047 0 0 Z " fill="#474747" transform="translate(254.5,250.25)"/>
<path d="M0 0 C2.43929746 1.92576115 4.80090595 3.80090595 7 6 C7 6.66 7 7.32 7 8 C1.125 6.125 1.125 6.125 0 5 C-0.04063832 3.33382885 -0.042721 1.66611905 0 0 Z " fill="#DBDBDB" transform="translate(78,228)"/>
<path d="M0 0 C4.67692308 1.47692308 4.67692308 1.47692308 6.3125 4.125 C6.539375 4.74375 6.76625 5.3625 7 6 C6.319375 5.690625 5.63875 5.38125 4.9375 5.0625 C1.63034088 3.86629351 -1.51545878 3.40994603 -5 3 C-4.360625 2.690625 -3.72125 2.38125 -3.0625 2.0625 C-1.06389179 1.1654837 -1.06389179 1.1654837 0 0 Z " fill="#DBDBDB" transform="translate(159,149)"/>
<path d="M0 0 C0.33 0 0.66 0 1 0 C1.27585566 1.93398808 1.51987415 3.87253909 1.75 5.8125 C1.88921875 6.89144531 2.0284375 7.97039062 2.171875 9.08203125 C2 12 2 12 0.140625 13.88671875 C-2 15 -2 15 -4 15 C-4 14.34 -4 13.68 -4 13 C-3.34 13 -2.68 13 -2 13 C-1.34 8.71 -0.68 4.42 0 0 Z " fill="#A9A9A9" transform="translate(404,139)"/>
<path d="M0 0 C0.33 0 0.66 0 1 0 C1 3.3 1 6.6 1 10 C-1.8290723 7.1709277 -2.37611108 6.61855575 -3 3 C-2.01 2.67 -1.02 2.34 0 2 C0 1.34 0 0.68 0 0 Z " fill="#D3D3D3" transform="translate(281,77)"/>
<path d="M0 0 C0 0.66 0 1.32 0 2 C-1.6396721 3.36639342 -3.31110128 4.6949419 -5 6 C-6.35147138 7.31494512 -7.69112542 8.64264858 -9 10 C-7.6834994 5.81113445 -4.97532335 0 0 0 Z " fill="#D3D3D3" transform="translate(134,312)"/>
<path d="M0 0 C1.32 0.66 2.64 1.32 4 2 C3.814375 2.61875 3.62875 3.2375 3.4375 3.875 C2.76313824 6.04160178 2.76313824 6.04160178 4 8 C1.36 7.34 -1.28 6.68 -4 6 C-2.68 5.34 -1.36 4.68 0 4 C0 2.68 0 1.36 0 0 Z " fill="#2C2C2C" transform="translate(256,258)"/>
<path d="M0 0 C0.66 0 1.32 0 2 0 C2.25 6.625 2.25 6.625 0 10 C-0.66 10 -1.32 10 -2 10 C-1.34 6.7 -0.68 3.4 0 0 Z " fill="#C8C8C8" transform="translate(431,191)"/>
<path d="M0 0 C0.66 0 1.32 0 2 0 C2.625 3.375 2.625 3.375 3 7 C2.34 7.66 1.68 8.32 1 9 C0.01 8.34 -0.98 7.68 -2 7 C-1.34 4.69 -0.68 2.38 0 0 Z " fill="#D1D1D1" transform="translate(270,130)"/>
<path d="M0 0 C2.52302656 0.52607788 4.9766151 1.1353164 7.44140625 1.88671875 C7.44140625 2.21671875 7.44140625 2.54671875 7.44140625 2.88671875 C6.69375 2.94730469 5.94609375 3.00789063 5.17578125 3.0703125 C4.1909375 3.15410156 3.20609375 3.23789063 2.19140625 3.32421875 C1.216875 3.40542969 0.24234375 3.48664063 -0.76171875 3.5703125 C-3.12321128 3.83746459 -5.2776044 4.24043843 -7.55859375 4.88671875 C-3.94337176 -0.17459203 -3.94337176 -0.17459203 0 0 Z " fill="#D9D9D9" transform="translate(306.55859375,105.11328125)"/>
<path d="M0 0 C2.78388975 1.70625501 3.85384206 2.47626739 4.75 5.6875 C4.87375 6.8321875 4.87375 6.8321875 5 8 C2 6 -1 4 -4 2 C-2.68 2 -1.36 2 0 2 C0 1.34 0 0.68 0 0 Z " fill="#CECECE" transform="translate(198,95)"/>
<path d="M0 0 C2.475 0.99 2.475 0.99 5 2 C4 4 4 4 2 5 C1.67 5.99 1.34 6.98 1 8 C0.34 8 -0.32 8 -1 8 C-0.67 5.36 -0.34 2.72 0 0 Z " fill="#383838" transform="translate(225,351)"/>
<path d="M0 0 C2.475 0.495 2.475 0.495 5 1 C4.67 2.32 4.34 3.64 4 5 C2.68 4.67 1.36 4.34 0 4 C0 2.68 0 1.36 0 0 Z " fill="#1D1D1D" transform="translate(299,267)"/>
<path d="M0 0 C1.32 1.65 2.64 3.3 4 5 C3.01 5.33 2.02 5.66 1 6 C0.01 6.495 0.01 6.495 -1 7 C-1.99 7.495 -1.99 7.495 -3 8 C-3 6.68 -3 5.36 -3 4 C-2.01 4 -1.02 4 0 4 C-0.33 3.01 -0.66 2.02 -1 1 C-0.67 0.67 -0.34 0.34 0 0 Z " fill="#C7C7C7" transform="translate(219,288)"/>
<path d="M0 0 C3 1 3 1 5 4 C4.64111965 6.96076291 4.15341979 7.84658021 2 10 C1.34 6.7 0.68 3.4 0 0 Z " fill="#A1A1A1" transform="translate(387,158)"/>
<path d="M0 0 C1.98 0.66 3.96 1.32 6 2 C5.67 2.99 5.34 3.98 5 5 C6.32 5.33 7.64 5.66 9 6 C2.25 5.25 2.25 5.25 0 3 C0 2.01 0 1.02 0 0 Z " fill="#C6C6C6" transform="translate(313,120)"/>
<path d="M0 0 C0.66 0.33 1.32 0.66 2 1 C1.67 1.66 1.34 2.32 1 3 C0.34 3 -0.32 3 -1 3 C-1.33 3.99 -1.66 4.98 -2 6 C-4.5625 7.1875 -4.5625 7.1875 -7 8 C-5.08864614 4.46399535 -3.37357234 2.21027154 0 0 Z " fill="#1F1F1F" transform="translate(147,95)"/>
<path d="M0 0 C1.32 0.33 2.64 0.66 4 1 C0.04 4.465 0.04 4.465 -4 8 C-4 4.09161134 -2.49432124 2.88405893 0 0 Z " fill="#CDCDCD" transform="translate(328,372)"/>
<path d="M0 0 C0.66 0 1.32 0 2 0 C2 2.31 2 4.62 2 7 C1.01 7 0.02 7 -1 7 C-1.04254356 5.00045254 -1.04080783 2.99958364 -1 1 C-0.67 0.67 -0.34 0.34 0 0 Z " fill="#131313" transform="translate(269,324)"/>
<path d="M0 0 C0.33 0.66 0.66 1.32 1 2 C-0.4375 4.625 -0.4375 4.625 -2 7 C-4.475 6.01 -4.475 6.01 -7 5 C-6.01 4.34 -5.02 3.68 -4 3 C-2.66209359 2.00612666 -1.32781878 1.0073108 0 0 Z " fill="#CECECE" transform="translate(153,202)"/>
<path d="M0 0 C2 2 2 2 2.125 5.625 C2.08375 6.73875 2.0425 7.8525 2 9 C0 8 0 8 -1.125 4.9375 C-1.41375 3.968125 -1.7025 2.99875 -2 2 C-1.34 2 -0.68 2 0 2 C0 1.34 0 0.68 0 0 Z " fill="#585858" transform="translate(369,291)"/>
<path d="M0 0 C0.66 0.33 1.32 0.66 2 1 C1.1875 2.9375 1.1875 2.9375 0 5 C-0.99 5.33 -1.98 5.66 -3 6 C-3.33 6.66 -3.66 7.32 -4 8 C-4.66 8 -5.32 8 -6 8 C-4.55746343 4.63408134 -2.66735273 2.48952921 0 0 Z " fill="#151515" transform="translate(84,208)"/>
<path d="M0 0 C0.6875 1.6875 0.6875 1.6875 1 4 C-0.3125 6.75 -0.3125 6.75 -2 9 C-2.66 9 -3.32 9 -4 9 C-4 7.68 -4 6.36 -4 5 C-3.34 4.67 -2.68 4.34 -2 4 C-0.86649466 1.98330173 -0.86649466 1.98330173 0 0 Z " fill="#C3C3C3" transform="translate(323,160)"/>
<path d="M0 0 C0.33 0 0.66 0 1 0 C1.66 2.97 2.32 5.94 3 9 C-1 7 -1 7 -2 4 C-1.34 4 -0.68 4 0 4 C0 2.68 0 1.36 0 0 Z " fill="#CACACA" transform="translate(176,147)"/>
<path d="M0 0 C0.33 0 0.66 0 1 0 C1 2.31 1 4.62 1 7 C0.01 7 -0.98 7 -2 7 C-2.125 4.625 -2.125 4.625 -2 2 C-1.34 1.34 -0.68 0.68 0 0 Z " fill="#060606" transform="translate(331,330)"/>
<path d="M0 0 C5.75 1.75 5.75 1.75 8 4 C6.02 4 4.04 4 2 4 C1.34 2.68 0.68 1.36 0 0 Z " fill="#C3C3C3" transform="translate(350,280)"/>
<path d="M0 0 C2.97 1.98 2.97 1.98 6 4 C5.01 4.495 5.01 4.495 4 5 C3.67 5.66 3.34 6.32 3 7 C0 3.375 0 3.375 0 0 Z " fill="#CACACA" transform="translate(298,174)"/>
<path d="M0 0 C3.465 1.98 3.465 1.98 7 4 C6.01 4.33 5.02 4.66 4 5 C3.67 5.66 3.34 6.32 3 7 C0 3.375 0 3.375 0 0 Z " fill="#E1E1E1" transform="translate(358,173)"/>
<path d="M0 0 C0.33 0 0.66 0 1 0 C1 2.64 1 5.28 1 8 C1.66 8.33 2.32 8.66 3 9 C1.35 9.66 -0.3 10.32 -2 11 C-1.34 7.37 -0.68 3.74 0 0 Z " fill="#AAAAAA" transform="translate(345,92)"/>
</svg>
